<svg preserveAspectRatio="none" width="100%" height="100%" overflow="visible" style="display: block;" viewBox="0 0 32 32" fill="none" xmlns="http://www.w3.org/2000/svg">
<g id="Container">
<rect width="32" height="32" fill="white"/>
<g id="Notification Bell">
<path id="Icon" d="M13.1011 9.77523C13.0352 9.52794 13 9.26808 13 9C13 7.34315 14.3431 6 16 6C17.6569 6 19 7.34315 19 9C19 9.26808 18.9648 9.52794 18.8989 9.77523M13 23H9.08493C8.27945 23 7.75557 22.2177 8.11579 21.5528L9.43842 19.1115C10.1907 17.7229 10.5823 16.1918 10.5823 14.6393V14C10.5823 12.3033 11.498 10.804 12.8982 9.90005C12.9648 9.85708 13.0324 9.81546 13.1011 9.77523C13.9394 9.28429 14.9337 9 16 9C17.0663 9 18.0606 9.28429 18.8989 9.77523C18.9676 9.81546 19.0352 9.85708 19.1018 9.90005C20.502 10.804 21.4177 12.3033 21.4177 14V14.6393C21.4177 16.1918 21.8093 17.7229 22.5616 19.1115L23.8842 21.5528C24.2444 22.2177 23.7205 23 22.9151 23H19M19 23C19 24.6569 17.6569 26 16 26C14.3431 26 13 24.6569 13 23M19 23H13" stroke="var(--stroke-0, #0D0D12)" stroke-width="2"/>
</g>
<circle id="Ellipse 1" cx="22" cy="10" r="4" fill="var(--fill-0, #14C1D5)" stroke="var(--stroke-0, white)" stroke-width="2"/>
</g>
</svg>
