<svg preserveAspectRatio="none" width="100%" height="100%" overflow="visible" style="display: block;" viewBox="0 0 1113 102" fill="none" xmlns="http://www.w3.org/2000/svg">
<g id="Union">
<mask id="path-1-inside-1_0_120" fill="white">
<path d="M1095 0C1104.94 1.54622e-05 1113 8.05888 1113 18V84C1113 93.9411 1104.94 102 1095 102H27C17.0589 102 9 93.9411 9 84V77.4648L0 72.3633L9 67.2617V18C9 8.05887 17.0589 0 27 0H1095Z"/>
</mask>
<path d="M1095 0C1104.94 1.54622e-05 1113 8.05888 1113 18V84C1113 93.9411 1104.94 102 1095 102H27C17.0589 102 9 93.9411 9 84V77.4648L0 72.3633L9 67.2617V18C9 8.05887 17.0589 0 27 0H1095Z" fill="var(--fill-0, white)"/>
<path d="M1095 0V-1V-1V0ZM1113 18H1114V18H1113ZM27 102L27 103H27V102ZM9 84H8V84H9ZM9 77.4648H10V76.8822L9.49313 76.5949L9 77.4648ZM0 72.3633L-0.493127 71.4933L-2.02788 72.3633L-0.493127 73.2332L0 72.3633ZM9 67.2617L9.49313 68.1317L10 67.8444V67.2617H9ZM1095 0V1C1104.39 1.00001 1112 8.61117 1112 18H1113H1114C1114 7.5066 1105.49 -0.999984 1095 -1V0ZM1113 18H1112V84H1113H1114V18H1113ZM1113 84H1112C1112 93.3888 1104.39 101 1095 101V102V103C1105.49 103 1114 94.4934 1114 84H1113ZM1095 102V101H27V102V103H1095V102ZM27 102L27 101C17.6112 101 10 93.3888 10 84H9H8C8 94.4934 16.5066 103 27 103L27 102ZM9 84H10V77.4648H9H8V84H9ZM9 77.4648L9.49313 76.5949L0.493127 71.4933L0 72.3633L-0.493127 73.2332L8.50687 78.3348L9 77.4648ZM0 72.3633L0.493127 73.2332L9.49313 68.1317L9 67.2617L8.50687 66.3918L-0.493127 71.4933L0 72.3633ZM9 67.2617H10V18H9H8V67.2617H9ZM9 18H10C10 8.61116 17.6112 1 27 1V0V-1C16.5066 -1 8 7.50659 8 18H9ZM27 0V1H1095V0V-1H27V0Z" fill="var(--stroke-0, #F0F0F0)" mask="url(#path-1-inside-1_0_120)"/>
</g>
</svg>
